<svg id="Logo" xmlns="http://www.w3.org/2000/svg" viewBox="0 0 63.94 90.38"><path d="M40.52,83.63a29.42,29.42,0,0,1-8.32,1.25h-.4a29.15,29.15,0,0,1-8.38-1.27A2.5,2.5,0,1,0,22,88.41a34.72,34.72,0,0,0,9.8,1.47h.4a34.3,34.3,0,0,0,9.74-1.46,2.5,2.5,0,1,0-1.42-4.79ZM62.35,22.1h0V22s0,0,0-.05a31.93,31.93,0,0,0-60.72.1s0,0,0,.06c-2.82,8.29-1.8,19.39,2.75,29.73,6.22,14.14,17.51,24,27.51,24h.28c10,0,21.29-9.83,27.51-24C64.17,41.52,65.19,30.4,62.35,22.1ZM47.68,10C42.62,9.81,37.12,12,32,16.28,26.82,12,21.32,9.81,16.26,10a27.09,27.09,0,0,1,31.42,0ZM36.1,69.93a9.73,9.73,0,0,1-8.26,0C19.31,66,17.59,50.2,24.07,35.46A44.88,44.88,0,0,1,32,23.18a44.54,44.54,0,0,1,7.91,12.28C46.35,50.2,44.63,66,36.1,69.93ZM8.9,49.86c-4.08-9.26-5-19-2.56-26.19,1.3-3.77,3.49-6.45,6.32-7.76,4.43-2.05,10.17-.6,15.67,3.85A49.67,49.67,0,0,0,19.5,33.44c-4.38,10-5.35,20.19-3.33,28.12A47.43,47.43,0,0,1,8.9,49.86Zm46.14,0a47.68,47.68,0,0,1-7.27,11.71c2-7.94,1-18.18-3.33-28.13a49.67,49.67,0,0,0-8.83-13.68c5.5-4.45,11.23-5.9,15.66-3.85,2.84,1.31,5,4,6.33,7.76C60.07,30.81,59.11,40.6,55,49.86Z" style="fill:#49cc68"/></svg>